# xmcd CD database file
#
# Track frame offsets:
#	150
#	24737
#	56003
#	67543
#	86806
#	107269
#	142187
#	165605
#	173875
#	191013
#
# Disc length: 2861 seconds
#
# Revision: 0
# Processed by: cddbd v1.5.2PL0 Copyright (c) Steve Scherf et al.
# Submitted via: CDex 1.70beta2
#
DISCID=820b2b0a
DTITLE=Jukka Tolonen and Coste Apetrea - Touch Wood
DYEAR=1981
DGENRE=New Age
TTITLE0=Autobahn
TTITLE1=A Minor Improvisation
TTITLE2=Socoa
TTITLE3=Down By The Lake
TTITLE4=I Remember Rovaniemi
TTITLE5=Caravan Road
TTITLE6=Touc Wood
TTITLE7=Bouzouki
TTITLE8=Gypsy
TTITLE9=Cinq Preludes - No. 4 In E Minor (H. Villa-Lobos)
EXTD=YEAR: 1981
EXTT0=
EXTT1=
EXTT2=
EXTT3=
EXTT4=
EXTT5=
EXTT6=
EXTT7=
EXTT8=
EXTT9=
PLAYORDER=
